<?xml version="1.0" standalone="no"?>
<!DOCTYPE svg PUBLIC "-//W3C//DTD SVG 20010904//EN"
 "http://www.w3.org/TR/2001/REC-SVG-20010904/DTD/svg10.dtd">
<svg version="1.0" xmlns="http://www.w3.org/2000/svg"
 width="36.000000pt" height="36.000000pt" viewBox="0 0 36.000000 36.000000"
 preserveAspectRatio="xMidYMid meet">
<metadata>
Created by potrace 1.15, written by Peter Selinger 2001-2017
</metadata>
<g transform="translate(0.000000,36.000000) scale(0.100000,-0.100000)"
fill="#000000" stroke="none">
<path d="M79 337 c-58 -39 -79 -81 -79 -157 0 -76 21 -118 79 -157 48 -33 154
-33 202 0 58 39 79 81 79 157 0 76 -21 118 -79 157 -48 33 -154 33 -202 0z
m181 -18 c105 -59 105 -219 0 -278 -107 -60 -240 17 -240 139 0 122 133 199
240 139z"/>
</g>
</svg>
